<svg version="1.1" xmlns="http://www.w3.org/2000/svg" width="512px" height="512px" transform="rotate(0) scale(1, 1)">
<path d="M0 0 C14.22238285 10.84758014 24.52949151 25.44483508 28.28515625 43.12109375 C28.51186589 45.21901857 28.64804812 47.30999122 28.77587891 49.41601562 C29.17623979 56.03884157 29.17623979 56.03884157 32.4609375 61.70703125 C34.33536554 63.17581928 36.25654987 64.58645096 38.21484375 65.94140625 C55.68708536 78.34536403 67.14225057 100.84792179 73.16015625 120.87109375 C73.35134033 121.50708496 73.54252441 122.14307617 73.73950195 122.79833984 C77.54108198 136.45503722 77.63436267 150.16874586 77.66601562 164.22265625 C77.67552743 166.74138101 77.70922438 169.25889174 77.74609375 171.77734375 C77.73852554 172.92426697 77.73852554 172.92426697 77.73080444 174.09436035 C77.82347897 179.11440647 78.83437236 181.52013461 82.28515625 185.12109375 C86.39443479 192.16557124 86.42307014 200.02552968 84.6640625 207.90234375 C82.10538211 215.27134328 77.5885751 220.87417594 70.63671875 224.50390625 C64.69175332 226.88522294 59.65099287 227.53852566 53.28515625 227.12109375 C53.15560547 228.48427734 53.15560547 228.48427734 53.0234375 229.875 C50.7997119 249.7661235 43.41135138 267.0204074 30.28515625 282.12109375 C29.84171875 282.70761719 29.39828125 283.29414063 28.94140625 283.8984375 C25.59139875 288.23914844 21.49268213 291.54100812 17.22265625 294.93359375 C16.62050293 295.4143335 16.01834961 295.89507324 15.39794922 296.39038086 C14.81287598 296.84421143 14.22780273 297.29804199 13.625 297.765625 C12.84177368 298.37434448 12.84177368 298.37434448 12.04272461 298.99536133 C9.8938695 300.37171511 7.67151598 301.23291532 5.28515625 302.12109375 C5.32952824 306.69332171 5.39958559 311.26419729 5.49267578 315.83569336 C5.52076735 317.38831778 5.54204032 318.94108208 5.55615234 320.49389648 C5.57774791 322.73623654 5.62447576 324.97691585 5.67578125 327.21875 C5.67762421 328.24730858 5.67762421 328.24730858 5.67950439 329.29664612 C5.82936345 334.31374804 7.03467145 338.29804562 10.28515625 342.12109375 C16.01010172 346.92267132 23.39612352 349.50678997 30.2109375 352.359375 C31.35314255 352.84383591 32.4953476 353.32829681 33.67216492 353.82743835 C37.31133444 355.36920564 40.95439127 356.90153305 44.59765625 358.43359375 C47.00221541 359.45055194 49.4065147 360.46812479 51.81054688 361.48632812 C64.91492807 367.03347907 64.91492807 367.03347907 78.04931641 372.5090332 C78.9204155 372.87083176 79.79151459 373.23263031 80.68901062 373.60539246 C82.26878496 374.26074874 83.85019862 374.91217573 85.43367004 375.55854797 C91.31061673 378.00051251 96.40364656 381.00531107 101.28515625 385.12109375 C101.90132813 385.59289062 102.5175 386.0646875 103.15234375 386.55078125 C110.33913432 392.71545049 115.78433384 403.82062409 117.28515625 413.12109375 C117.39233812 415.80655248 117.45243249 418.46697899 117.4621582 421.15258789 C117.4687294 421.94668564 117.4753006 422.74078339 117.48207092 423.5589447 C117.50171011 426.1747142 117.51344114 428.79042674 117.5234375 431.40625 C117.52751303 432.30134214 117.53158855 433.19643429 117.53578758 434.11865044 C117.55660121 438.85001262 117.57092719 443.58134615 117.58032227 448.31274414 C117.59141945 453.20110379 117.62587049 458.08901235 117.66549397 462.97721195 C117.69160182 466.73726767 117.70000854 470.49721444 117.70360374 474.25735283 C117.70847928 476.05991118 117.72012073 477.86246436 117.73864174 479.66493416 C117.76292548 482.18332327 117.76208914 484.70052442 117.75512695 487.21899414 C117.77434204 488.33578049 117.77434204 488.33578049 117.79394531 489.47512817 C117.75879697 492.95884148 117.54363389 494.78740793 115.38078308 497.57957458 C113.12302202 499.24035784 112.05624573 499.68900603 109.28515625 499.68359375 C108.62515625 499.70550781 107.96515625 499.72742188 107.28515625 499.75 C104.09720694 498.74753938 103.07758146 496.88666504 101.28515625 494.12109375 C100.90991755 491.42680586 100.75962406 489.14645541 100.80273438 486.46020508 C100.79882187 485.7050058 100.79490936 484.94980652 100.7908783 484.17172241 C100.78491571 482.53702946 100.78805096 480.90228329 100.79930115 479.26761818 C100.8166117 476.67232307 100.80902767 474.07813737 100.79504395 471.48283386 C100.76543761 465.03439428 100.77853811 458.5861679 100.79022217 452.13769531 C100.79846057 446.69079635 100.79033578 441.2443826 100.76109314 435.79755211 C100.75404973 433.25492182 100.77061612 430.71316951 100.78820801 428.17060852 C100.78634844 417.08517673 99.61019343 407.42820349 91.68261719 399.03466797 C88.72408293 396.67326354 85.56340641 395.02144161 82.17578125 393.37890625 C81.47916382 393.03617676 80.78254639 392.69344727 80.06481934 392.34033203 C71.76604826 388.30754232 63.28255669 384.71026021 54.78515625 381.12109375 C46.61765625 377.65609375 46.61765625 377.65609375 38.28515625 374.12109375 C38.28515625 394.58109375 38.28515625 415.04109375 38.28515625 436.12109375 C41.58515625 437.77109375 44.88515625 439.42109375 48.28515625 441.12109375 C55.31214707 446.02672885 59.75863287 452.65582774 61.28515625 461.12109375 C62.07165959 471.94955943 60.99945542 480.65439255 54.08984375 489.265625 C47.87670424 495.65359311 40.48176056 499.3006521 31.52539062 499.50170898 C20.82617711 499.47244139 13.98164325 497.41483063 6.07421875 490.04296875 C-0.6430762 482.82700998 -3.25228528 474.83696892 -3.0234375 465.0234375 C-1.96298837 455.04984634 2.66743039 448.0182852 10.08203125 441.5546875 C14.1207071 438.41845913 15.76043982 438.04187982 21.28515625 437.12109375 C21.28515625 417.98109375 21.28515625 398.84109375 21.28515625 379.12109375 C7.29952191 388.34874809 7.29952191 388.34874809 -6.68481445 397.57836914 C-8.46170502 398.75023294 -10.23863909 399.92203079 -12.015625 401.09375 C-13.35627014 401.97927551 -13.35627014 401.97927551 -14.72399902 402.88269043 C-17.38330457 404.63550461 -20.04821562 406.37944417 -22.71484375 408.12109375 C-23.69568939 408.76762909 -24.67653503 409.41416443 -25.68710327 410.08029175 C-26.65942902 410.71307037 -27.63175476 411.345849 -28.63354492 411.99780273 C-29.51153244 412.57247787 -30.38951996 413.14715302 -31.29411316 413.73924255 C-35.00536579 415.85777607 -38.23531011 416.29027464 -42.46484375 416.37109375 C-43.2640625 416.396875 -44.06328125 416.42265625 -44.88671875 416.44921875 C-52.93365013 415.51559688 -59.11996211 411.14580527 -65.62109375 406.66015625 C-66.54523071 406.03257416 -67.46936768 405.40499207 -68.42150879 404.75839233 C-71.35798983 402.76204275 -74.28661264 400.75451976 -77.21484375 398.74609375 C-80.1446469 396.74720648 -83.0760311 394.75066486 -86.00817871 392.75521851 C-87.82638435 391.51670907 -89.6429704 390.27581738 -91.4576416 389.03213501 C-92.29210815 388.46159393 -93.12657471 387.89105286 -93.98632812 387.30322266 C-94.70832397 386.80819244 -95.43031982 386.31316223 -96.17419434 385.8031311 C-99.64294681 383.50664297 -103.18711969 381.32592128 -106.71484375 379.12109375 C-106.71484375 392.32109375 -106.71484375 405.52109375 -106.71484375 419.12109375 C-98.6083244 419.00329224 -98.6083244 419.00329224 -90.50244141 418.85083008 C-82.0000854 418.78902618 -73.01029976 419.25591778 -66.33984375 425.18359375 C-58.18678612 433.48812895 -58.14946867 443.04939754 -58.16796875 454.0859375 C-58.17634766 454.99585449 -58.18472656 455.90577148 -58.19335938 456.84326172 C-58.21479776 459.61514786 -58.19349274 462.38444284 -58.16796875 465.15625 C-58.13510225 484.43966493 -58.13510225 484.43966493 -64.6796875 492.55859375 C-65.65615234 493.33203125 -65.65615234 493.33203125 -66.65234375 494.12109375 C-67.30074219 494.65734375 -67.94914063 495.19359375 -68.6171875 495.74609375 C-74.36347524 499.51274791 -79.99739039 499.9375227 -86.71484375 499.12109375 C-89.40234375 497.55859375 -89.40234375 497.55859375 -90.71484375 495.12109375 C-91.25695456 491.32631806 -91.36501053 489.13874611 -89.27734375 485.87109375 C-86.22184299 483.78441031 -83.29358528 482.88052462 -79.73828125 481.9296875 C-77.3582748 481.20027702 -77.3582748 481.20027702 -75.71484375 478.12109375 C-75.50679678 475.33844248 -75.41081566 472.65833011 -75.4140625 469.875 C-75.40763481 468.66371681 -75.40763481 468.66371681 -75.40107727 467.42796326 C-75.39533676 465.72078387 -75.39483167 464.01358001 -75.39916992 462.30639648 C-75.40232792 459.69667745 -75.37887524 457.08809433 -75.35351562 454.47851562 C-75.35124237 452.81901185 -75.35053926 451.15950502 -75.3515625 449.5 C-75.34235275 448.72072647 -75.33314301 447.94145294 -75.32365417 447.13856506 C-75.35124888 443.90106126 -75.49123113 441.53327857 -77.05004883 438.65991211 C-80.31747779 435.6397325 -83.80575834 435.98505349 -88.03466797 435.95996094 C-89.99217484 435.94554962 -89.99217484 435.94554962 -91.98922729 435.93084717 C-93.4159935 435.92599929 -94.84276174 435.92172044 -96.26953125 435.91796875 C-97.73300172 435.91221509 -99.19647218 435.90645739 -100.65994263 435.9006958 C-103.72821402 435.89019409 -106.79645926 435.88434595 -109.86474609 435.88085938 C-113.7911923 435.87537523 -117.71729163 435.85134575 -121.64362907 435.82288742 C-124.66684979 435.80423953 -127.68998728 435.79905431 -130.71326065 435.7975235 C-132.16051251 435.79450147 -133.60776307 435.78648806 -135.05495834 435.77333832 C-137.08197896 435.75623421 -139.109143 435.76000919 -141.13623047 435.76464844 C-142.86472733 435.75917999 -142.86472733 435.75917999 -144.62814331 435.75360107 C-148.36085187 436.19800541 -151.03775055 437.44400055 -153.71484375 440.12109375 C-153.84076449 442.97033676 -153.90352117 445.79400983 -153.91796875 448.64453125 C-153.92651886 449.93020493 -153.92651886 449.93020493 -153.9352417 451.24185181 C-153.94470657 453.0593339 -153.95123156 454.87683327 -153.95507812 456.69433594 C-153.964779 459.47751801 -153.99578589 462.25996036 -154.02734375 465.04296875 C-154.03387396 466.80598518 -154.03912436 468.56900691 -154.04296875 470.33203125 C-154.05531555 471.16648773 -154.06766235 472.00094421 -154.0803833 472.86068726 C-154.20767593 477.14502459 -154.20767593 477.14502459 -152.32733154 480.81460571 C-150.35859213 482.40973995 -148.65407964 482.90406545 -146.21484375 483.55859375 C-143.46115395 484.43313693 -141.84052589 485.01759081 -139.58984375 486.87109375 C-138.27286725 490.25760475 -138.8313087 492.65006318 -139.71484375 496.12109375 C-141.40133432 498.4339951 -142.28975407 499.04486604 -145.1328125 499.5546875 C-152.75382184 499.56543646 -158.06081566 498.58014406 -163.69140625 493.25 C-169.95364003 486.43370026 -171.02915998 481.13808905 -171.05078125 472.0703125 C-171.05743805 471.0975386 -171.06409485 470.12476471 -171.07095337 469.12251282 C-171.08106166 467.06745285 -171.08577095 465.01236019 -171.08544922 462.95727539 C-171.08981432 459.8296838 -171.12613145 456.70351327 -171.1640625 453.57617188 C-171.16993282 451.57422355 -171.17390077 449.57226855 -171.17578125 447.5703125 C-171.19015228 446.64296799 -171.20452332 445.71562347 -171.21932983 444.76017761 C-171.16966097 437.62302267 -169.45741187 432.43919009 -164.890625 426.9140625 C-164.27574219 426.38425781 -163.66085938 425.85445313 -163.02734375 425.30859375 C-162.42535156 424.76589844 -161.82335937 424.22320312 -161.203125 423.6640625 C-153.09908186 418.63879242 -144.96047069 418.74211034 -135.65234375 418.93359375 C-131.38296875 418.99546875 -127.11359375 419.05734375 -122.71484375 419.12109375 C-123.04484375 404.27109375 -123.37484375 389.42109375 -123.71484375 374.12109375 C-130.12402961 376.84960498 -136.52965704 379.58450602 -142.92871094 382.33642578 C-145.10348082 383.26934712 -147.27989559 384.19844413 -149.45800781 385.12353516 C-152.60017847 386.45888581 -155.73604999 387.80817254 -158.87109375 389.16015625 C-159.83599731 389.56666412 -160.80090088 389.973172 -161.79504395 390.39199829 C-169.30877921 393.65728472 -176.62037709 397.49061515 -181.08984375 404.62109375 C-181.78207031 405.6884375 -181.78207031 405.6884375 -182.48828125 406.77734375 C-185.28750798 412.12618464 -186.00492038 417.00588215 -185.97021484 422.97485352 C-185.97564552 424.11991867 -185.97564552 424.11991867 -185.98118591 425.28811646 C-185.98805018 426.93644076 -185.99059095 428.58478765 -185.98923874 430.23312569 C-185.98826966 432.84371836 -186.00125913 435.45390365 -186.01821899 438.06443787 C-186.06438656 445.4832754 -186.08910776 452.90206853 -186.09570312 460.32104492 C-186.10071777 464.86687504 -186.12495886 469.41227554 -186.16102982 473.95796013 C-186.17082302 475.68706623 -186.17316236 477.41623144 -186.16785812 479.14535713 C-186.16078667 481.56294876 -186.17806786 483.97925809 -186.20068359 486.39672852 C-186.19251114 487.10803421 -186.18433868 487.8193399 -186.17591858 488.55220032 C-186.25526156 493.32408823 -187.31583439 495.78108963 -190.71484375 499.12109375 C-192.71484375 499.75 -192.71484375 499.75 -194.71484375 499.68359375 C-195.37484375 499.68488281 -196.03484375 499.68617188 -196.71484375 499.6875 C-199.69765367 498.84275891 -200.81146755 497.56653626 -202.71484375 495.12109375 C-203.1098167 492.39435893 -203.26256531 490.07089137 -203.23242188 487.34594727 C-203.23943115 486.56645218 -203.24644043 485.78695709 -203.25366211 484.98384094 C-203.27126927 482.40553151 -203.2596 479.82832078 -203.24609375 477.25 C-203.24879034 475.44839773 -203.25267416 473.64679689 -203.25769043 471.84519958 C-203.26359119 468.06308175 -203.25501313 464.2813415 -203.23632812 460.49926758 C-203.21368525 455.68452407 -203.22656395 450.87067974 -203.25061798 446.05597019 C-203.26518677 442.32980283 -203.26041718 438.60384255 -203.25010681 434.87766838 C-203.24746229 433.10490751 -203.25062797 431.33212705 -203.26002502 429.55938911 C-203.32218116 414.52072418 -201.64014213 402.10796374 -191.71484375 390.12109375 C-190.98201172 389.18523437 -190.98201172 389.18523437 -190.234375 388.23046875 C-179.13875924 375.56606412 -157.92397529 369.9216383 -142.90234375 363.62109375 C-140.52119546 362.61787296 -138.14033418 361.61397068 -135.75976562 360.609375 C-134.01483322 359.87303833 -134.01483322 359.87303833 -132.23464966 359.12182617 C-127.74804879 357.22556793 -123.26461255 355.32189765 -118.78167725 353.41699219 C-115.92071941 352.20808704 -113.05245873 351.01846304 -110.18212891 349.83203125 C-108.56378581 349.14794345 -106.94575885 348.46310701 -105.328125 347.77734375 C-104.61593307 347.49024536 -103.90374115 347.20314697 -103.16996765 346.90734863 C-97.83991175 344.61274398 -94.18711363 341.67412941 -91.92211914 336.20800781 C-91.60854804 333.05087495 -91.476419 329.90019703 -91.3984375 326.73046875 C-91.3776564 326.0258551 -91.35687531 325.32124146 -91.33546448 324.59527588 C-91.27030538 322.35397694 -91.21124127 320.11256511 -91.15234375 317.87109375 C-91.10912649 316.34764478 -91.06551118 314.82420704 -91.02148438 313.30078125 C-90.91465884 309.57433784 -90.81329736 305.84776881 -90.71484375 302.12109375 C-91.88720581 301.66972046 -91.88720581 301.66972046 -93.08325195 301.20922852 C-97.56679566 299.35533165 -101.00636946 296.1987147 -104.71484375 293.12109375 C-105.53597656 292.44820313 -106.35710937 291.7753125 -107.203125 291.08203125 C-124.82686255 276.00729462 -135.80925013 254.02175922 -138.71484375 231.12109375 C-138.71484375 229.80109375 -138.71484375 228.48109375 -138.71484375 227.12109375 C-139.80796875 227.20359375 -140.90109375 227.28609375 -142.02734375 227.37109375 C-150.37059449 227.3267933 -158.04252797 223.935148 -163.98828125 218.1484375 C-169.82847299 211.2908368 -171.61952889 204.63463314 -171.2578125 195.66015625 C-170.09205896 188.06179148 -166.88768984 181.42316561 -160.83984375 176.55859375 C-152.91670221 171.05355385 -145.15773412 170.68754726 -135.87304688 170.76953125 C-131.44181931 170.68890239 -129.33374357 170.57358004 -125.6640625 167.890625 C-123.68178895 165.07412812 -123.05584551 163.55631427 -122.71484375 160.18359375 C-121.88069598 154.99334094 -120.56836086 152.71187106 -116.71484375 149.12109375 C-110.96741682 145.44387487 -104.57292547 144.91213295 -97.96484375 143.87109375 C-62.42175223 137.85365598 -9.18004561 125.58629561 17.28515625 99.12109375 C24.35762002 98.54138361 24.35762002 98.54138361 27.78515625 100.68359375 C29.89522464 104.11245489 29.91007148 106.16329726 29.28515625 110.12109375 C26.22769441 113.98788372 22.49694605 116.59401987 18.28515625 119.12109375 C17.62515625 119.12109375 16.96515625 119.12109375 16.28515625 119.12109375 C16.28515625 119.78109375 16.28515625 120.44109375 16.28515625 121.12109375 C16.86523438 121.38921875 17.4453125 121.65734375 18.04296875 121.93359375 C27.16025292 126.76225993 32.79073736 135.23760734 36.09765625 144.80859375 C37.63901671 150.35749142 37.64802666 155.98275208 37.68359375 161.703125 C38.06251479 165.21577395 38.06251479 165.21577395 40.2421875 168.01953125 C44.38377128 170.87982917 47.67082945 170.89859656 52.59765625 170.93359375 C53.43361328 170.95873047 54.26957031 170.98386719 55.13085938 171.00976562 C57.18179034 171.06836365 59.23352218 171.09765868 61.28515625 171.12109375 C61.13138373 149.39705419 61.13138373 149.39705419 57.28515625 128.12109375 C56.95773437 126.91195312 56.6303125 125.7028125 56.29296875 124.45703125 C52.26689022 111.04602484 45.45646269 98.71415294 36.28515625 88.12109375 C35.63289062 87.32574219 34.980625 86.53039062 34.30859375 85.7109375 C18.30311699 66.88267665 -5.31412179 55.23711544 -29.71484375 52.12109375 C-33.96952425 51.83952406 -38.20173534 51.78651818 -42.46484375 51.80859375 C-43.60937012 51.8142334 -44.75389648 51.81987305 -45.93310547 51.82568359 C-73.68128289 52.22281636 -98.84886648 64.0266513 -118.2421875 83.66796875 C-134.90229175 101.1677069 -142.55699472 122.56737463 -146.16015625 146.01953125 C-146.79139481 149.56594424 -147.27868317 151.6973949 -149.90234375 154.24609375 C-153.61563525 155.40133999 -155.97967856 155.15863964 -159.71484375 154.12109375 C-161.65234375 152.62109375 -161.65234375 152.62109375 -162.71484375 150.12109375 C-163.25640339 143.80399364 -162.35966776 137.73162016 -161.08984375 131.55859375 C-160.82252441 130.25595581 -160.82252441 130.25595581 -160.54980469 128.92700195 C-154.6748484 101.79633451 -139.29531871 77.59534726 -117.71484375 60.12109375 C-117.05484375 59.79109375 -116.39484375 59.46109375 -115.71484375 59.12109375 C-115.35936375 56.73299731 -115.10847879 54.39776146 -114.90234375 51.99609375 C-112.83466971 32.92683078 -104.17685629 15.83698905 -89.71484375 3.12109375 C-63.38393704 -17.6396651 -27.62698532 -19.1202589 0 0 Z M-85.71484375 22.12109375 C-91.62611926 29.95381637 -96.29473884 38.36135317 -97.71484375 48.12109375 C-96.16990234 47.43273438 -96.16990234 47.43273438 -94.59375 46.73046875 C-63.0646937 33.02543066 -28.74716015 32.04922591 3.37158203 44.359375 C6.36999928 45.55292716 9.32794642 46.82899687 12.28515625 48.12109375 C10.1234221 33.94972541 1.85096581 21.69229337 -9.44921875 13.0234375 C-34.35557202 -3.54561955 -65.25777294 0.21999442 -85.71484375 22.12109375 Z M-15.90234375 135.55859375 C-42.83342505 148.601439 -71.75506058 155.94931891 -101.20068359 160.65966797 C-103.82906858 161.08151285 -103.82906858 161.08151285 -106.71484375 162.12109375 C-107.60158097 164.48365149 -107.60158097 164.48365149 -108.15234375 167.30859375 C-109.90059114 174.3015833 -112.5954182 179.087836 -118.71484375 183.12109375 C-125.78657205 186.28578984 -131.8964498 186.56952457 -139.55664062 186.6484375 C-144.41843705 186.77376053 -147.76837258 186.95312568 -151.71484375 190.12109375 C-154.55785409 193.55231313 -155.31044527 196.65034593 -155.1328125 201.125 C-154.35487657 204.84018932 -152.47506484 206.5448874 -149.71484375 209.12109375 C-144.65811415 211.80199244 -139.35957914 211.52719932 -133.77734375 211.6875 C-129.94752782 211.84203643 -127.97284195 211.94909495 -124.71484375 214.12109375 C-123.71675857 217.1153493 -123.43533301 219.8421308 -123.17138672 222.97167969 C-121.15705526 245.76267347 -112.01556095 265.23254751 -94.90625 280.65234375 C-76.76839153 295.02481233 -55.74502199 301.35224502 -32.71484375 299.12109375 C-11.34400494 295.98992028 7.63915787 285.11235831 21.015625 268.2265625 C31.25607655 254.21424067 36.55712867 239.76232387 37.47802734 222.4152832 C37.71187128 218.92569729 37.97139476 216.64648083 39.78515625 213.609375 C43.50992189 211.39197546 46.96145247 211.5620164 51.22265625 211.55859375 C58.26939469 211.51878167 62.28474953 210.95931632 67.59765625 205.93359375 C69.77998067 202.29638638 70.22034282 199.20554109 69.28515625 195.12109375 C67.16314793 191.30483374 64.32193652 188.76843202 60.28515625 187.12109375 C58.23165035 186.82395356 58.23165035 186.82395356 56.08984375 186.84765625 C54.89911255 186.82131104 54.89911255 186.82131104 53.68432617 186.79443359 C52.8513501 186.77848145 52.01837402 186.7625293 51.16015625 186.74609375 C42.17159237 186.40139205 34.33988475 185.73968332 27.84765625 178.87109375 C23.21516151 172.64208953 22.19807355 167.3089789 21.84765625 159.68359375 C21.34439262 149.93769991 18.5016139 142.81587977 11.28515625 136.12109375 C2.50564719 129.02414417 -6.54796455 130.71336398 -15.90234375 135.55859375 Z M-74.71484375 310.12109375 C-74.72418945 310.88139893 -74.73353516 311.6417041 -74.74316406 312.42504883 C-74.79742771 315.92851208 -74.8809644 319.43071927 -74.96484375 322.93359375 C-74.98611328 324.72700195 -74.98611328 324.72700195 -75.0078125 326.55664062 C-75.31160377 337.70578032 -77.46066609 346.87427031 -85.27734375 355.10546875 C-89.6106143 358.68875016 -94.56753864 360.93348908 -99.71484375 363.12109375 C-97.09369373 365.86998826 -94.49205093 368.09442842 -91.31689453 370.17382812 C-90.45564972 370.74121704 -89.59440491 371.30860596 -88.70706177 371.89318848 C-87.78408295 372.49433472 -86.86110413 373.09548096 -85.91015625 373.71484375 C-84.9534201 374.34338257 -83.99668396 374.97192139 -83.01095581 375.61950684 C-79.95683871 377.62453062 -76.89844701 379.62292176 -73.83984375 381.62109375 C-71.78877219 382.96570309 -69.73798768 384.31075042 -67.6875 385.65625 C-60.80606394 390.17330161 -60.80606394 390.17330161 -53.90826416 394.6652832 C-52.57328067 395.55133452 -51.25437709 396.46318136 -49.96820068 397.41870117 C-47.65708022 399.1270386 -45.76744272 400.10906115 -42.95605469 400.75219727 C-37.85078971 399.75813957 -34.11179208 396.91918792 -29.85546875 394.0234375 C-28.91104919 393.39635391 -27.96662964 392.76927032 -26.99359131 392.1231842 C-23.97525149 390.11442927 -20.97015761 388.08677136 -17.96484375 386.05859375 C-15.95785491 384.71946785 -13.95005038 383.38156361 -11.94140625 382.04492188 C-3.12935975 376.16736475 5.62668731 370.22313198 14.28515625 364.12109375 C11.59260314 362.05848052 9.01512416 360.43050958 5.97265625 358.93359375 C-1.91425861 354.56206364 -5.9568788 348.71251317 -8.88745117 340.30859375 C-10.37601293 334.57396339 -10.39491238 328.83008011 -10.46484375 322.93359375 C-10.49449219 321.69544922 -10.52414062 320.45730469 -10.5546875 319.18164062 C-10.62465456 316.16139581 -10.67771199 313.14189011 -10.71484375 310.12109375 C-11.97554688 310.40984375 -13.23625 310.69859375 -14.53515625 310.99609375 C-33.33322599 315.07442364 -50.95603814 315.52018182 -69.71484375 311.12109375 C-71.38068296 310.78364951 -73.04721693 310.44958985 -74.71484375 310.12109375 Z M18.48046875 455.77734375 C15.12733776 459.56365434 13.42730892 462.23757081 13.03515625 467.43359375 C13.34987919 472.07575712 14.3868432 475.24302937 17.75 478.5703125 C22.59406005 482.70375249 25.45884662 483.48429807 31.6796875 483.39453125 C36.33932569 482.90551375 39.45532759 481.21698058 42.6015625 477.61328125 C45.62915131 473.07717259 46.34554518 468.45046224 45.28515625 463.12109375 C43.16801715 458.13193398 40.42683464 454.20224929 35.28515625 452.12109375 C28.86291828 450.42465353 23.4290703 451.23577004 18.48046875 455.77734375 Z " fill="#FFA629" transform="translate(298.71484375,12.87890625)"/>
<path d="M0 0 C1.9507695 -0.00642769 1.9507695 -0.00642769 3.94094849 -0.01298523 C6.68609713 -0.02041795 9.43111711 -0.02017797 12.17626953 -0.01489258 C15.67179581 -0.00910528 19.16679095 -0.02602477 22.66222954 -0.04923725 C26.02484058 -0.06762481 29.38733913 -0.06378706 32.75 -0.0625 C34.61602371 -0.07631462 34.61602371 -0.07631462 36.51974487 -0.09040833 C47.85110998 -0.03049117 56.35121975 2.11352462 64.5078125 10.30078125 C70.93851498 18.73764305 72.82026394 27.16619657 72.80859375 37.55859375 C72.81287888 38.42410858 72.817164 39.28962341 72.82157898 40.18136597 C72.82729167 42.00501639 72.82784527 43.82868959 72.82348633 45.65234375 C72.82034481 48.39754657 72.84375983 51.14165015 72.86914062 53.88671875 C72.94268693 73.6895109 69.72373092 90.40829198 55.62109375 105.3125 C53.5078125 107.30078125 53.5078125 107.30078125 51.41381836 108.61962891 C49.31530469 110.14617479 49.31530469 110.14617479 48.96191406 112.5690918 C48.9409668 113.4331665 48.92001953 114.29724121 48.8984375 115.1875 C48.86621094 116.12529297 48.83398438 117.06308594 48.80078125 118.02929688 C48.78660156 119.00576172 48.77242188 119.98222656 48.7578125 120.98828125 C48.71333984 122.47038086 48.71333984 122.47038086 48.66796875 123.98242188 C48.59725758 126.42195721 48.54456985 128.8605365 48.5078125 131.30078125 C49.12342041 131.428479 49.73902832 131.55617676 50.37329102 131.68774414 C51.18209717 131.86039795 51.99090332 132.03305176 52.82421875 132.2109375 C53.62545166 132.37988525 54.42668457 132.54883301 55.25219727 132.72290039 C59.68592486 133.85880614 61.99265639 135.52804709 64.5078125 139.30078125 C64.3258207 142.69796149 64.17029611 145.30705584 62.2578125 148.17578125 C59.84950355 149.72397986 58.40154402 150.11205963 55.5078125 150.30078125 C54.13670471 149.83720797 52.76705812 149.36930306 51.3984375 148.8984375 C48.39650222 148.20663973 47.01756341 148.06155557 44.20166016 149.38305664 C41.80879698 151.12081096 39.59533956 152.96372895 37.3828125 154.92578125 C35.86272364 156.21359847 34.3393367 157.49753399 32.8125 158.77734375 C32.08506592 159.38795654 31.35763184 159.99856934 30.6081543 160.62768555 C25.21303325 164.92534503 20.82242599 166.92425876 13.87109375 166.62890625 C8.7793256 165.92195001 5.54415205 163.32803591 1.5078125 160.30078125 C1.1778125 168.22078125 0.8478125 176.14078125 0.5078125 184.30078125 C3.8078125 184.30078125 7.1078125 184.30078125 10.5078125 184.30078125 C15.73046587 185.92750935 19.04977234 188.05233191 22.5078125 192.30078125 C24.91213833 197.71471773 24.84068168 202.92491798 24.8203125 208.73828125 C24.83642578 209.65416016 24.85253906 210.57003906 24.86914062 211.51367188 C24.87370354 217.8698109 24.34478654 223.08121274 19.97265625 228.04296875 C14.58020787 232.04248289 11.20003398 233.13285142 4.5078125 232.30078125 C1.9453125 230.73828125 1.9453125 230.73828125 0.5078125 228.30078125 C0.04654563 224.61064628 0.02260864 222.27118896 1.6953125 218.92578125 C3.5078125 217.30078125 3.5078125 217.30078125 8.5078125 216.30078125 C8.5078125 211.02078125 8.5078125 205.74078125 8.5078125 200.30078125 C-2.0521875 200.30078125 -12.6121875 200.30078125 -23.4921875 200.30078125 C-23.4303125 202.87890625 -23.3684375 205.45703125 -23.3046875 208.11328125 C-23.29800049 208.92128174 -23.29131348 209.72928223 -23.28442383 210.56176758 C-23.23058271 212.83109352 -23.23058271 212.83109352 -22.4921875 216.30078125 C-20.12215371 218.19727546 -20.12215371 218.19727546 -17.4921875 219.30078125 C-15.81864299 222.64787028 -15.2666262 224.39853607 -16.1796875 228.05078125 C-17.4921875 230.30078125 -17.4921875 230.30078125 -20.4921875 232.30078125 C-25.07059624 233.05076821 -28.63426328 232.72164973 -32.8046875 230.67578125 C-36.80724475 227.13863763 -39.17199888 224.73568033 -39.8762207 219.38037109 C-40.03106641 215.84536935 -40.03740135 212.33876513 -39.9921875 208.80078125 C-40.01539063 206.98513672 -40.01539063 206.98513672 -40.0390625 205.1328125 C-39.99082813 194.17155208 -39.99082813 194.17155208 -35.4921875 189.30078125 C-29.01375457 183.30823079 -24.83751267 184.30078125 -15.4921875 184.30078125 C-15.8221875 172.42078125 -16.1521875 160.54078125 -16.4921875 148.30078125 C-20.6996875 149.72390625 -24.9071875 151.14703125 -29.2421875 152.61328125 C-30.5631543 153.05583252 -31.88412109 153.49838379 -33.24511719 153.9543457 C-34.29086914 154.31230225 -35.33662109 154.67025879 -36.4140625 155.0390625 C-37.48237305 155.40040283 -38.55068359 155.76174316 -39.65136719 156.1340332 C-42.39935194 157.26265293 -44.34864376 158.2514763 -46.4921875 160.30078125 C-47.67723155 163.69701396 -47.62289817 166.9949449 -47.6340332 170.56640625 C-47.64106766 171.83452148 -47.64810211 173.10263672 -47.65534973 174.40917969 C-47.65716562 175.08396362 -47.65898151 175.75874756 -47.66085243 176.45397949 C-47.66804283 178.57260914 -47.68372651 180.69101054 -47.70219421 182.80957031 C-47.75455607 188.83134924 -47.8026643 194.85299806 -47.81811523 200.875 C-47.82819597 204.56273026 -47.85751465 208.24987788 -47.89943504 211.93737793 C-47.91174193 213.34073481 -47.91686684 214.74417394 -47.91463661 216.14758301 C-47.91228421 218.11016994 -47.9366383 220.07273384 -47.9621582 222.03515625 C-47.96802444 223.15116211 -47.97389069 224.26716797 -47.97993469 225.41699219 C-48.61091128 228.96915113 -49.63333695 230.1560795 -52.4921875 232.30078125 C-56.34787834 232.85159423 -58.48658701 233.03826466 -61.67858887 230.69732666 C-64.10817801 227.48679231 -63.99938859 225.46126285 -64.00976562 221.45605469 C-64.0167749 220.77581741 -64.02378418 220.09558014 -64.03100586 219.39472961 C-64.04858647 217.14945432 -64.03695909 214.90544407 -64.0234375 212.66015625 C-64.02613368 211.09319824 -64.03001715 209.52624185 -64.03503418 207.95928955 C-64.04093032 204.67403241 -64.03236768 201.38921042 -64.01367188 198.10400391 C-63.99095698 193.90975882 -64.00395628 189.71654185 -64.02796173 185.52233505 C-64.04248138 182.28446851 -64.03778441 179.04684174 -64.02745056 175.80896759 C-64.02479633 174.2637342 -64.02800683 172.71847849 -64.03736877 171.17327118 C-64.08209433 161.71079112 -63.65631335 155.06218918 -57.984375 147.21459961 C-51.1582942 140.8347285 -42.19506687 138.65088153 -33.4921875 135.86328125 C-31.84185738 135.31884412 -30.19211088 134.7726345 -28.54296875 134.22460938 C-24.53248263 132.89612299 -20.51484658 131.59191478 -16.4921875 130.30078125 C-15.12655349 118.61205111 -15.12655349 118.61205111 -18.02734375 107.6953125 C-20.09461709 106.01839135 -22.21253317 104.6709777 -24.4921875 103.30078125 C-32.72873936 95.80055315 -38.80450618 83.946655 -39.6934967 72.76982117 C-39.78897004 69.77079569 -39.82177211 66.77789197 -39.828125 63.77734375 C-39.8347818 62.67659515 -39.8414386 61.57584656 -39.84829712 60.44174194 C-39.85839215 58.1203579 -39.86311512 55.79894503 -39.86279297 53.47753906 C-39.86716475 49.94417077 -39.90351595 46.41205381 -39.94140625 42.87890625 C-39.94727547 40.61588966 -39.95124416 38.35286717 -39.953125 36.08984375 C-39.96749603 35.04269196 -39.98186707 33.99554016 -39.99667358 32.91665649 C-39.93675893 23.20116729 -37.0289787 16.18533078 -30.4140625 9.08984375 C-21.30660326 0.61176177 -11.97386453 -0.008744 0 0 Z M-19.13671875 20.8359375 C-22.71774798 25.51882188 -23.61718235 27.55126541 -23.5546875 33.42578125 C-23.54566406 34.52148438 -23.53664062 35.6171875 -23.52734375 36.74609375 C-23.51574219 37.58914063 -23.50414062 38.4321875 -23.4921875 39.30078125 C-19.53605562 37.15787648 -15.9245235 34.9350837 -12.3671875 32.17578125 C-7.02120678 28.1458912 -3.16022389 26.6099437 3.58984375 27.4375 C7.88330094 28.7077196 11.25868295 31.13738172 14.90527344 33.64428711 C27.2820821 42.05233674 41.61646558 47.08017904 56.5078125 48.30078125 C56.58937687 45.44602819 56.64857622 42.5936456 56.6953125 39.73828125 C56.72044922 38.93841797 56.74558594 38.13855469 56.77148438 37.31445312 C56.85539674 30.46160999 55.67498841 25.80136884 51.0703125 20.48828125 C47.02283773 17.03311986 44.33410201 16.05147609 39.00830078 16.02612305 C37.90680695 16.01659103 36.80531311 16.00705902 35.67044067 15.99723816 C34.4849765 15.99814957 33.29951233 15.99906097 32.078125 16 C30.85503632 15.99571487 29.63194763 15.99142975 28.37179565 15.98701477 C25.78449116 15.98127153 23.19717052 15.98077115 20.60986328 15.98510742 C16.65499231 15.98826355 12.70087202 15.96482006 8.74609375 15.93945312 C6.23177178 15.93717974 3.71744779 15.93647682 1.203125 15.9375 C-0.56899857 15.92368538 -0.56899857 15.92368538 -2.37692261 15.90959167 C-8.96567707 15.94663811 -14.08180927 16.11722152 -19.13671875 20.8359375 Z M-6.44140625 46.66796875 C-7.83649414 47.74884766 -7.83649414 47.74884766 -9.25976562 48.8515625 C-10.22333984 49.61855469 -11.18691406 50.38554687 -12.1796875 51.17578125 C-13.15486328 51.93503906 -14.13003906 52.69429688 -15.13476562 53.4765625 C-19.45630032 56.72262068 -19.45630032 56.72262068 -23.4921875 60.30078125 C-24.51950256 70.37183711 -22.63518497 79.15667901 -16.8046875 87.48828125 C-9.64054777 96.23248187 -1.70044098 102.05913055 9.5078125 104.30078125 C22.78840375 105.23654107 32.99489574 102.64511429 43.5078125 94.30078125 C52.27405572 85.68137627 55.40594509 76.25711001 56.5078125 64.30078125 C55.28449219 64.09324219 54.06117187 63.88570313 52.80078125 63.671875 C35.57140808 60.58959551 20.24880678 55.68896811 5.51171875 46.12109375 C0.19205171 42.89747237 -1.45190342 42.75124911 -6.44140625 46.66796875 Z M0.5078125 118.30078125 C-0.8614591 124.81835934 -2.19790883 131.75565957 -0.4921875 138.30078125 C3.44352556 143.79235652 9.62576933 147.19387076 15.5078125 150.30078125 C17.19742891 149.33981192 18.88623197 148.37737643 20.5703125 147.40673828 C22.24471383 146.45096232 23.93725469 145.52709567 25.6328125 144.609375 C29.03352688 142.39613833 31.20326581 140.67123345 33.5078125 137.30078125 C34.59471807 130.9986239 33.49396286 124.55488321 32.5078125 118.30078125 C31.36441406 118.46320313 30.22101563 118.625625 29.04296875 118.79296875 C24.66140918 119.33885533 20.35626751 119.44973214 15.9453125 119.42578125 C14.87120117 119.43158203 14.87120117 119.43158203 13.77539062 119.4375 C9.25413615 119.42927206 4.96875571 119.03938683 0.5078125 118.30078125 Z " fill="#FFA629" transform="translate(63.4921875,223.69921875)"/>
<path d="M0 0 C0.96803055 -0.00570007 1.9360611 -0.01140015 2.9334259 -0.01727295 C4.98010167 -0.02670354 7.02679248 -0.03324921 9.07348633 -0.03710938 C12.17882352 -0.04678709 15.2834906 -0.07781778 18.38867188 -0.109375 C20.38411068 -0.11590872 22.37955419 -0.12115774 24.375 -0.125 C25.29202194 -0.1373468 26.20904388 -0.1496936 27.15385437 -0.16241455 C38.38320064 -0.12429368 48.62587141 3.41897748 57.02734375 11.01953125 C63.3018803 17.74224898 68.07173371 26.16792115 68.1965332 35.50585938 C68.21578606 36.76867737 68.21578606 36.76867737 68.23542786 38.05700684 C68.24281479 38.96116333 68.25020172 39.86531982 68.2578125 40.796875 C68.26588425 41.7393811 68.27395599 42.68188721 68.28227234 43.6529541 C68.29609522 45.6501279 68.30682539 47.64732513 68.31469727 49.64453125 C68.32617249 51.66934217 68.34655285 53.69412392 68.3762207 55.71875 C68.69130758 77.23619115 68.69130758 77.23619115 64.01953125 87.203125 C63.58390869 88.16750488 63.14828613 89.13188477 62.69946289 90.12548828 C59.18291649 97.598063 52.56814342 106.42881891 45.01953125 110.203125 C45.01953125 116.803125 45.01953125 123.403125 45.01953125 130.203125 C48.65275391 131.36328125 48.65275391 131.36328125 52.359375 132.546875 C54.7343414 133.32267944 57.10660537 134.10627032 59.47875977 134.890625 C61.1121717 135.42613824 62.74822003 135.95368534 64.38696289 136.47265625 C83.32400633 142.48258154 83.32400633 142.48258154 89.01953125 150.203125 C91.48682764 155.18770279 92.39884981 158.80418988 92.42358398 164.4519043 C92.43044724 165.13900482 92.43731049 165.82610535 92.44438171 166.5340271 C92.4625323 168.78201547 92.45883165 171.0292986 92.453125 173.27734375 C92.45769038 174.8495964 92.46299702 176.42184706 92.4690094 177.99409485 C92.47791575 181.27812853 92.47554334 184.56191865 92.46557617 187.84594727 C92.45405141 192.05279083 92.47436324 196.25879934 92.50349331 200.46553326 C92.521835 203.70749738 92.52156763 206.94926022 92.51585579 210.1912632 C92.51570253 211.74260447 92.52175098 213.29395934 92.53414726 214.84525108 C92.54902936 217.01154636 92.53840575 219.1762828 92.52124023 221.3425293 C92.52107407 222.57384079 92.5209079 223.80515228 92.52073669 225.07377625 C91.92342203 228.80319684 91.03736157 229.99229214 88.01953125 232.203125 C84.51953125 232.703125 84.51953125 232.703125 81.01953125 232.203125 C78.16306239 230.05988633 77.13793083 228.8769662 76.51400757 225.32606506 C76.51115753 224.21307541 76.5083075 223.10008575 76.50537109 221.95336914 C76.49210785 220.6884816 76.4788446 219.42359406 76.46517944 218.12037659 C76.47015322 216.74301103 76.47525272 215.36564591 76.48046875 213.98828125 C76.47055893 212.57106511 76.45861658 211.15386186 76.44473267 209.73667908 C76.41237688 206.00837733 76.40197976 202.28036924 76.39788818 198.55194092 C76.38913191 192.58828241 76.35353767 186.62486524 76.30571365 180.66140556 C76.29315999 178.58245146 76.29388394 176.50380416 76.29598999 174.42481995 C76.28903107 173.15678024 76.28207214 171.88874054 76.27490234 170.58227539 C76.27364349 169.46849014 76.27238464 168.3547049 76.27108765 167.20716858 C76.01034513 164.09342589 75.48744703 161.95592462 74.01953125 159.203125 C67.14863135 154.97487891 59.67987961 152.9389637 52.01953125 150.203125 C52.01953125 162.083125 52.01953125 173.963125 52.01953125 186.203125 C53.66953125 186.533125 55.31953125 186.863125 57.01953125 187.203125 C62.7833667 190.92560206 65.93746555 195.66455271 68.01953125 202.203125 C68.94320336 208.90175577 68.95643221 215.48482517 65.421875 221.421875 C60.82672394 227.25861283 55.55955812 231.63785298 48.0390625 232.57421875 C40.33267977 232.73379062 34.23302513 232.04583 28.01953125 227.203125 C23.32811415 221.98502075 20.07435686 215.9651209 19.9921875 208.828125 C20.45677376 201.01354579 22.65510175 195.06374693 28.51953125 189.765625 C31.21240013 187.51952755 32.40200503 187.10750656 36.01953125 186.203125 C35.68953125 175.643125 35.35953125 165.083125 35.01953125 154.203125 C30.21492134 157.77388234 30.21492134 157.77388234 25.41674805 161.35327148 C24.81515869 161.79743408 24.21356934 162.24159668 23.59375 162.69921875 C22.67468872 163.38262329 22.67468872 163.38262329 21.73706055 164.07983398 C17.2604626 167.00759904 12.14532991 167.04072059 7.01953125 166.203125 C1.59043565 163.75678102 -2.97398309 160.11122289 -7.4375 156.21875 C-13.4347757 150.55249892 -13.4347757 150.55249892 -20.91796875 148.015625 C-23.5293041 148.58752432 -23.5293041 148.58752432 -25.92578125 149.48828125 C-27.98046875 150.203125 -27.98046875 150.203125 -30.91796875 149.578125 C-33.39142707 147.92915279 -34.66932937 146.89824484 -35.98046875 144.203125 C-35.76985945 138.20075987 -35.76985945 138.20075987 -33.70703125 135.59375 C-31.6937302 133.97217721 -29.94129178 133.29078425 -27.48046875 132.515625 C-26.3203125 132.13857422 -26.3203125 132.13857422 -25.13671875 131.75390625 C-22.98046875 131.203125 -22.98046875 131.203125 -19.98046875 131.203125 C-19.14275865 118.77950319 -19.14275865 118.77950319 -22.8046875 107.37890625 C-25.07972745 105.47976628 -25.07972745 105.47976628 -27.56640625 103.86328125 C-36.3515384 97.82172597 -40.97072372 85.429161 -43.09375 75.37890625 C-44.2723656 68.46455637 -44.35260944 61.553954 -44.35107422 54.56103516 C-44.35544914 52.33808773 -44.39189989 50.11712999 -44.4296875 47.89453125 C-44.5392414 34.01146765 -41.85924704 21.75722714 -32.203125 11.2734375 C-22.90104145 2.40887526 -12.40329505 0.05685475 0 0 Z M-22.41796875 24.453125 C-28.33765956 32.27657344 -28.46038396 40.95547698 -28.37158203 50.4675293 C-28.35557728 52.50183012 -28.37145494 54.53412082 -28.390625 56.56835938 C-28.35401618 69.05806795 -26.8014908 79.24040498 -18.98046875 89.203125 C-18.36300781 90.03714844 -17.74554688 90.87117188 -17.109375 91.73046875 C-10.52789866 99.37464219 -0.75811099 103.51851467 9.11328125 104.515625 C19.44158639 104.90908424 29.07392397 102.65281603 37.14453125 95.9609375 C45.41311413 88.20914105 51.61865467 80.06741009 52.21240234 68.41943359 C52.30212301 64.35196565 52.34154009 60.28365563 52.36962891 56.21533203 C52.38613032 54.46780018 52.41334316 52.72033419 52.45166016 50.97314453 C52.99229272 36.76301838 52.99229272 36.76301838 47.01953125 24.203125 C39.96706066 17.5120573 33.1051933 15.89156936 23.59765625 15.83203125 C22.69762878 15.82300278 21.79760132 15.8139743 20.87030029 15.80467224 C18.9708588 15.79020902 17.07136794 15.7812928 15.171875 15.77758789 C12.29209662 15.76571801 9.41448153 15.71651714 6.53515625 15.66601562 C-4.82904181 15.56537046 -14.06745748 15.81599717 -22.41796875 24.453125 Z M-3.98046875 118.203125 C-6.20231541 129.71623244 -6.20231541 129.71623244 -2.84375 140.328125 C0.01719129 142.63873516 2.78696859 144.45350046 6.01953125 146.203125 C9.48453125 148.183125 9.48453125 148.183125 13.01953125 150.203125 C18.62953125 145.913125 24.23953125 141.623125 30.01953125 137.203125 C29.68953125 135.553125 29.35953125 133.903125 29.01953125 132.203125 C28.80254638 129.76807263 28.6166238 127.33011116 28.45703125 124.890625 C28.37324219 123.63636719 28.28945313 122.38210938 28.203125 121.08984375 C28.14253906 120.13722656 28.08195312 119.18460937 28.01953125 118.203125 C26.54806641 118.44675781 26.54806641 118.44675781 25.046875 118.6953125 C20.88031252 119.28829072 16.78459902 119.35082114 12.58203125 119.328125 C11.86982422 119.33199219 11.15761719 119.33585937 10.42382812 119.33984375 C5.5427064 119.33097704 0.85226945 118.88962445 -3.98046875 118.203125 Z M38.01953125 203.203125 C36.36093525 206.01208563 36.36093525 206.01208563 36.01953125 209.203125 C37.35079572 212.13190684 38.7525809 213.93617465 41.01953125 216.203125 C44.87459887 216.63146585 47.1475349 216.76209702 50.45703125 214.640625 C52.62349153 211.26094696 52.58241127 209.14328513 52.01953125 205.203125 C50.08970708 202.48707617 48.6775235 201.45619894 45.58203125 200.265625 C42.10671435 200.18086117 40.67487127 200.97838066 38.01953125 203.203125 Z " fill="#FFA629" transform="translate(419.98046875,223.796875)"/>
<path d="M0 0 C3.76722379 0.73867133 6.03990421 2.2786463 9.19921875 4.37890625 C15.4987356 8.32693351 22.99215747 8.38481352 30.1875 7.625 C34.81861434 6.32289999 38.88490247 4.4539257 42.9375 1.875 C45.97460918 0.18771712 47.76476983 0.05454497 51.1875 0.625 C54.51628632 3.08540728 55.98051948 4.52110387 56.75 8.625 C56.04892142 12.36408578 54.75889285 13.84148888 52.1875 16.625 C39.52215589 24.74475027 25.61292194 26.69195149 10.9375 23.5 C3.70037172 21.45577769 -3.68824705 18.17755141 -7.8125 11.625 C-8.3125 8.6875 -8.3125 8.6875 -7.8125 5.625 C-5.43204538 2.40438492 -3.94156717 0.87590382 0 0 Z " fill="#FFA629" transform="translate(231.8125,247.375)"/>
<path d="M0 0 C2.875 1.625 2.875 1.625 5 5 C5.92666752 11.26247889 6.31172331 16.91667474 2.875 22.375 C-0.55446851 24.31339525 -2.13247112 24.80573518 -6 24 C-8.875 22.375 -8.875 22.375 -11 19 C-11.92666752 12.73752111 -12.31172331 7.08332526 -8.875 1.625 C-5.44553149 -0.31339525 -3.86752888 -0.80573518 0 0 Z " fill="#FFA629" transform="translate(299,200)"/>
<path d="M0 0 C2.875 1.625 2.875 1.625 5 5 C5.92666752 11.26247889 6.31172331 16.91667474 2.875 22.375 C-0.55446851 24.31339525 -2.13247112 24.80573518 -6 24 C-8.875 22.375 -8.875 22.375 -11 19 C-11.92666752 12.73752111 -12.31172331 7.08332526 -8.875 1.625 C-5.44553149 -0.31339525 -3.86752888 -0.80573518 0 0 Z " fill="#FFA629" transform="translate(219,200)"/>
</svg>