<svg preserveAspectRatio="none" width="100%" height="100%" overflow="visible" style="display: block;" viewBox="0 0 121.641 121.641" fill="none" xmlns="http://www.w3.org/2000/svg">
<g id="ant-design:safety-outlined">
<path id="Vector" d="M60.8203 7.60254L15.2051 22.8076V68.4228C15.2051 93.6181 35.625 114.038 60.8203 114.038C86.0156 114.038 106.436 93.6181 106.436 68.4228V22.8076L60.8203 7.60254ZM97.8827 68.4228C97.8827 88.8903 81.2878 105.485 60.8203 105.485C40.3528 105.485 23.7579 88.8903 23.7579 68.4228V29.2223L60.8203 16.1554L97.8827 29.2223V68.4228Z" fill="var(--fill-0, #FFA629)"/>
<path id="Vector_2" d="M44.95 56.437C44.5536 56.0388 44.0825 55.7228 43.5637 55.5073C43.0449 55.2917 42.4886 55.1807 41.9268 55.1807C41.365 55.1807 40.8087 55.2917 40.2899 55.5073C39.7711 55.7228 39.3 56.0388 38.9036 56.437C38.5054 56.8333 38.1895 57.3044 37.9739 57.8233C37.7583 58.3421 37.6473 58.8983 37.6473 59.4602C37.6473 60.022 37.7583 60.5783 37.9739 61.0971C38.1895 61.6159 38.5054 62.087 38.9036 62.4834L54.275 77.8547L54.5245 78.1042C54.8994 78.4798 55.3447 78.7778 55.8349 78.9812C56.3251 79.1845 56.8506 79.2891 57.3813 79.2891C57.9121 79.2891 58.4376 79.1845 58.9278 78.9812C59.418 78.7778 59.8633 78.4798 60.2382 78.1042L86.7877 51.5547C87.1634 51.1798 87.4614 50.7345 87.6647 50.2443C87.868 49.754 87.9727 49.2285 87.9727 48.6978C87.9727 48.1671 87.868 47.6416 87.6647 47.1514C87.4614 46.6612 87.1634 46.2159 86.7877 45.8409L86.4551 45.5083C86.0802 45.1327 85.6349 44.8347 85.1447 44.6314C84.6545 44.428 84.1289 44.3234 83.5982 44.3234C83.0675 44.3234 82.542 44.428 82.0518 44.6314C81.5616 44.8347 81.1163 45.1327 80.7413 45.5083L57.3754 68.8624L44.95 56.437Z" fill="var(--fill-0, #FFA629)"/>
</g>
</svg>
