<?xml version="1.0" standalone="no"?>
<!DOCTYPE svg PUBLIC "-//W3C//DTD SVG 20010904//EN"
 "http://www.w3.org/TR/2001/REC-SVG-20010904/DTD/svg10.dtd">
<svg version="1.0" xmlns="http://www.w3.org/2000/svg"
 width="399.000000pt" height="105.000000pt" viewBox="0 0 399.000000 105.000000"
 preserveAspectRatio="xMidYMid meet">

<g transform="translate(0.000000,105.000000) scale(0.100000,-0.100000)"
fill="#000000" stroke="none">
<path d="M630 1011 c-48 -15 -90 -42 -106 -66 l-16 -25 -239 0 -239 0 0 -110
0 -110 230 0 230 0 0 -215 0 -214 28 -28 c25 -26 82 -40 82 -20 0 4 9 3 20 -3
11 -6 20 -19 20 -29 0 -14 11 -20 43 -26 23 -5 49 -9 57 -9 8 -1 21 -5 29 -10
8 -5 16 -5 20 1 6 10 51 13 51 3 1 -3 12 -18 25 -35 24 -29 24 -29 45 -10 18
16 23 17 30 5 5 -8 23 -14 43 -13 28 1 37 -4 42 -21 5 -16 8 -18 12 -6 12 31
25 41 39 29 8 -6 20 -9 29 -6 8 4 27 0 42 -8 32 -17 63 -19 63 -5 0 6 16 10
36 10 19 0 44 5 55 10 13 7 25 7 37 1 14 -7 25 -6 39 4 17 12 23 11 49 -11 23
-19 87 -54 99 -54 1 0 4 98 7 217 4 160 2 240 -8 303 -8 50 -14 160 -14 268
l0 182 -84 0 -85 0 -3 -47 -3 -48 -27 46 -27 46 -141 7 c-130 6 -144 5 -190
-15 -27 -12 -54 -27 -60 -34 -9 -11 -21 -7 -62 18 -39 25 -63 32 -111 34 -34
1 -73 -1 -87 -6z m133 -45 c44 -16 73 -39 96 -78 l17 -27 18 33 c37 69 159
103 234 64 27 -14 32 -14 32 -2 0 12 11 14 47 12 l47 -3 61 -98 60 -98 3 101
3 100 39 0 40 0 0 -165 0 -165 -47 0 -48 1 -60 100 -60 99 -3 -100 -3 -100
-39 0 c-22 0 -40 4 -40 9 0 6 -16 3 -35 -5 -43 -18 -116 -18 -158 0 -37 15
-87 69 -87 94 0 9 -10 -1 -23 -23 -41 -73 -155 -107 -241 -71 -73 31 -115 134
-87 218 30 90 138 138 234 104z m-129 -382 c3 -9 6 -24 6 -35 0 -10 4 -19 9
-19 11 0 19 -30 14 -48 -3 -7 -14 -17 -26 -24 -20 -10 -21 -10 -8 5 12 15 11
17 -3 17 -27 0 -31 -2 -28 -12 1 -5 -3 -8 -10 -6 -22 7 -21 56 1 84 12 15 21
33 21 40 0 19 16 18 24 -2z m456 -23 c0 -10 7 -22 15 -25 9 -3 22 -21 31 -41
10 -25 28 -42 64 -60 62 -31 75 -31 112 0 74 62 168 32 168 -55 0 -64 -68
-103 -112 -63 -27 24 -22 32 15 26 23 -3 37 0 46 10 16 20 11 57 -10 70 -30
19 -73 -10 -128 -88 -54 -76 -105 -119 -153 -130 -16 -4 -28 -12 -28 -18 0
-18 32 -47 53 -47 11 0 17 -3 14 -6 -9 -10 -168 -12 -197 -3 -22 6 -22 7 -4 8
41 2 70 61 29 61 -7 0 -62 32 -122 72 -121 80 -196 118 -233 118 -38 0 -54 14
-35 30 23 19 93 23 160 10 154 -33 191 -23 225 56 11 24 26 47 35 50 8 4 15
15 15 25 0 12 7 19 20 19 13 0 20 -7 20 -19z"/>
<path d="M1135 890 c-16 -17 -20 -18 -38 -5 -57 40 -137 -9 -137 -83 0 -76 66
-120 130 -87 30 15 33 15 51 -1 19 -17 19 -15 19 89 0 59 -2 107 -3 107 -2 0
-12 -9 -22 -20z"/>
<path d="M649 887 c-24 -18 -39 -52 -39 -87 0 -42 15 -67 51 -86 95 -48 176
80 100 157 -32 31 -82 39 -112 16z"/>
<path d="M2230 335 l0 -125 31 0 31 0 -7 76 c-5 51 -4 75 2 71 6 -4 30 -38 53
-77 39 -65 45 -70 76 -70 l34 0 0 126 0 125 -27 -3 c-26 -3 -26 -3 -24 -80 1
-43 0 -78 -3 -78 -3 0 -26 36 -53 80 -44 74 -50 80 -80 80 l-33 0 0 -125z"/>
<path d="M2490 361 c0 -89 2 -103 23 -126 44 -52 154 -39 177 21 6 14 10 66
10 115 l0 89 -30 0 -30 0 0 -88 c0 -93 -8 -112 -46 -112 -34 0 -43 20 -46 110
-3 84 -3 85 -30 88 l-28 3 0 -100z"/>
<path d="M2738 454 c-5 -4 -8 -61 -8 -126 l0 -118 30 0 c29 0 30 2 30 44 0 25
4 48 10 51 5 3 22 -17 37 -44 25 -45 32 -51 61 -51 39 0 39 5 7 52 -30 45 -31
50 -5 66 31 19 28 86 -5 108 -27 17 -145 31 -157 18z m110 -53 c25 -16 9 -46
-26 -49 -28 -3 -32 0 -32 21 0 13 3 27 7 30 9 10 35 8 51 -2z"/>
<path d="M2974 437 c-29 -26 -35 -67 -13 -93 8 -9 33 -25 56 -35 46 -20 52
-29 28 -49 -12 -10 -21 -10 -46 0 -27 12 -33 11 -50 -7 l-20 -20 34 -17 c43
-20 79 -20 116 -1 30 15 41 33 41 68 -1 32 -21 54 -68 72 -29 12 -42 23 -42
36 0 21 33 26 60 9 10 -6 20 -4 32 7 24 21 23 28 -7 41 -42 19 -91 14 -121
-11z"/>
<path d="M3150 336 l0 -126 30 0 31 0 -3 123 -3 122 -27 3 -28 3 0 -125z"/>
<path d="M3247 453 c-4 -3 -7 -60 -7 -125 l0 -118 30 0 29 0 3 77 3 77 45 -75
c42 -69 48 -74 83 -77 l37 -3 0 125 0 126 -30 0 -30 0 0 -82 0 -82 -51 82
c-43 71 -54 82 -78 82 -15 0 -31 -3 -34 -7z"/>
<path d="M3553 440 c-58 -35 -75 -99 -43 -164 31 -65 98 -89 183 -65 l37 10 0
64 0 65 -55 0 c-48 0 -55 -2 -55 -20 0 -15 7 -20 25 -20 20 0 25 -5 25 -24 0
-30 -27 -41 -63 -27 -49 19 -62 80 -26 125 22 28 66 35 87 14 9 -9 16 -7 32 7
26 24 25 29 -5 43 -39 18 -106 14 -142 -8z"/>
<path d="M2006 413 c5 -5 12 -12 16 -18 4 -6 8 -2 8 8 0 9 -7 17 -17 17 -9 0
-12 -3 -7 -7z"/>
<path d="M1966 388 c-8 -13 -22 -52 -31 -88 -9 -36 -24 -76 -32 -90 l-16 -25
22 19 c12 11 30 50 41 90 12 39 25 81 30 94 5 12 8 22 5 22 -2 0 -11 -10 -19
-22z"/>
<path d="M1987 322 c-22 -24 -22 -56 0 -73 15 -13 15 -12 3 7 -10 17 -10 26 4
52 19 36 17 40 -7 14z"/>
<path d="M2046 326 c3 -8 -1 -29 -9 -46 -17 -34 -16 -37 7 -14 18 17 21 60 6
69 -6 3 -7 -1 -4 -9z"/>
<path d="M2076 293 c-21 -60 -13 -67 13 -12 23 47 25 59 12 59 -5 0 -16 -21
-25 -47z"/>
<path d="M2135 330 c-3 -5 -1 -10 4 -10 6 0 11 5 11 10 0 6 -2 10 -4 10 -3 0
-8 -4 -11 -10z"/>
</g>
</svg>
