<svg preserveAspectRatio="none" width="100%" height="100%" overflow="visible" style="display: block;" viewBox="0 0 144 144" fill="none" xmlns="http://www.w3.org/2000/svg">
<g id="la:user-nurse">
<path id="Vector" d="M45.702 18L45 21.6585L40.5 46.971V63H40.923C41.5457 67.3497 43.0677 71.522 45.392 75.251C47.7163 78.98 50.792 82.1839 54.423 84.6585C38.3715 91.5435 27 107.473 27 126H36C35.9934 120.599 37.2036 115.266 39.5407 110.397C41.8779 105.528 45.2819 101.248 49.5 97.875V100.827L50.7645 102.235L68.7645 120.235L72 123.327L75.2355 120.235L93.2355 102.235L94.5 100.827V97.875C98.7181 101.248 102.122 105.528 104.459 110.397C106.796 115.266 108.007 120.599 108 126H117C117 107.473 105.629 91.548 89.577 84.654C93.2075 82.1799 96.2829 78.9767 98.6072 75.2485C100.931 71.5204 102.454 67.3489 103.077 63H103.5V46.9665L99 21.6585L98.298 18H45.702ZM53.298 27H90.702L94.5 48.5145V54H49.5V48.5145L53.298 27ZM67.5 31.5V36H63V45H67.5V49.5H76.5V45H81V36H76.5V31.5H67.5ZM49.923 63H94.077C93.0387 68.0867 90.2733 72.6578 86.2496 75.9384C82.2259 79.219 77.1916 81.0073 72 81C66.8084 81.0073 61.7741 79.219 57.7504 75.9384C53.7267 72.6578 50.9613 68.0867 49.923 63ZM72 90C76.6209 89.9702 81.2043 90.8304 85.5 92.5335V97.0335L72 110.533L58.5 97.0335V92.5335C62.7957 90.8304 67.3791 89.9702 72 90Z" fill="var(--fill-0, #FFA629)"/>
</g>
</svg>
